# xmcd CD database file
#
# Track frame offsets:
#	187
#	18655
#	35965
#	57137
#	78820
#	98272
#	120862
#	141397
#	168140
#	185900
#	207675
#	232170
#	253312
#	274735
#
# Disc length: 3849 seconds
#
# Revision: 8
# Processed by: cddbd v1.5.1PL2 Copyright (c) Steve Scherf et al.
# Submitted via: CDex 1.51
#
DISCID=c90f070e
DTITLE=Genghis Khan - Greatest Hits
DYEAR=1992
DGENRE=Dance
TTITLE0=Machu Picchu
TTITLE1=Hadschi Halef Omar
TTITLE2=Madagaskar
TTITLE3=Kaspar Hauser
TTITLE4=Mann Und Frau
TTITLE5=Die Fremden
TTITLE6=Moskau
TTITLE7=Rom
TTITLE8=Kontiki
TTITLE9=Tiger, Tiger
TTITLE10=Kapt'n Nemo
TTITLE11=Sierra Nevada
TTITLE12=Samurai
TTITLE13=Dschinghis Khan
EXTD=YEAR: 1992
EXTT0=
EXTT1=
EXTT2=
EXTT3=
EXTT4=
EXTT5=
EXTT6=
EXTT7=
EXTT8=
EXTT9=
EXTT10=
EXTT11=
EXTT12=
EXTT13=
PLAYORDER=
